<?xml version="1.0" encoding="utf-8"?>
<svg xmlns="http://www.w3.org/2000/svg" viewBox="79.378 241 178.283 178.283" width="512px" height="512px"><defs><linearGradient gradientUnits="userSpaceOnUse" x1="375.795" y1="271.91" x2="375.795" y2="300.911" id="gradient-0" gradientTransform="matrix(2.60727, -1.46422, 0.725191, 1.2913, -865.297001, 528.818998)"><stop offset="0" style="stop-color: rgb(72.941% 85.49% 33.333%)"/><stop offset="1" style="stop-color: rgb(255, 80, 23);"/></linearGradient><linearGradient gradientUnits="userSpaceOnUse" x1="287.381" y1="285.276" x2="287.381" y2="314.276" id="gradient-1" gradientTransform="matrix(2.00558, -2.21797, 0.580153, 0.5246, -432.595001, 855.898998)"><stop offset="0" style="stop-color: rgb(219, 14, 39); stop-opacity: 0;"/><stop offset="1" style="stop-color: rgb(219, 14, 39);"/></linearGradient><linearGradient gradientUnits="userSpaceOnUse" x1="318.926" y1="212.36" x2="318.926" y2="241.36" id="gradient-2" gradientTransform="matrix(0.577626, -2.93396, 3.19087, 0.628198, -629.472001, 1111.573998)"><stop offset="0" style="stop-color: rgb(43.529% 64.706% 9.0196%)"/><stop offset="1" style="stop-color: rgb(111, 165, 23); stop-opacity: 0;"/></linearGradient><radialGradient gradientUnits="userSpaceOnUse" cx="296.734" cy="230.139" r="21.508" id="gradient-3" gradientTransform="matrix(8.34258, -4.72521, 1.47371, 2.60191, -2548.286001, 1117.631998)"><stop offset="0" style="stop-color: rgb(59, 136, 195); stop-opacity: 0.12;"/><stop offset="1" style="stop-color: rgb(59, 136, 195);"/></radialGradient></defs><g id="object-1"><g id="object-0" transform="matrix(1, 0, 0, 1, -135.318, -34.971)"><path d="M 242.937 430.232 C 258.16 415.012 279.188 405.598 302.41 405.598 C 325.639 405.598 346.666 415.012 361.884 430.232" style="fill: rgb(216, 216, 216); stroke: rgb(59, 136, 195);"/><path d="M 318.208 307.454 C 309.237 307.454 309.237 310.445 300.266 310.445 C 291.295 310.445 291.295 307.454 282.325 307.454 C 270.363 307.454 255.412 313.435 255.412 334.37 C 255.412 367.263 273.354 394.175 285.315 394.175 C 294.286 394.175 294.286 391.185 300.266 391.185 C 306.247 391.185 306.247 394.175 315.218 394.175 C 327.179 394.175 345.12 367.263 345.12 334.37 C 345.12 313.435 330.169 307.454 318.208 307.454 Z" style="fill: url(&quot;#gradient-0&quot;);"/><path d="M 303.254 308.456 C 303.254 308.456 312.224 296.495 327.176 296.495 C 339.137 296.495 345.117 302.475 345.117 302.475 C 345.117 302.475 333.156 311.446 324.186 311.446 C 315.215 311.446 303.254 308.456 303.254 308.456 Z" style="fill: rgb(62, 114, 29);"/><path fill="#662113" d="M 300.263 317.43 C 298.613 317.43 297.273 316.09 297.273 314.437 C 297.273 304.15 300.861 294.659 307.12 288.4 C 308.289 287.234 310.179 287.234 311.348 288.4 C 312.517 289.572 312.517 291.462 311.348 292.631 C 306.202 297.775 303.254 305.723 303.254 314.437 C 303.254 316.09 301.914 317.43 300.263 317.43 Z" style=""/><path d="M 318.208 307.457 C 309.237 307.457 309.237 310.448 300.266 310.448 C 291.295 310.448 291.295 307.457 282.325 307.457 C 270.363 307.457 255.412 313.438 255.412 334.37 C 255.412 367.263 273.354 394.175 285.315 394.175 C 294.286 394.175 294.286 391.185 300.266 391.185 C 306.247 391.185 306.247 394.175 315.218 394.175 C 327.179 394.175 345.12 367.263 345.12 334.37 C 345.12 313.435 330.169 307.457 318.208 307.457 Z" style="fill: url(&quot;#gradient-1&quot;);"/><path d="M 318.208 307.457 C 309.237 307.457 309.237 310.448 300.266 310.448 C 291.295 310.448 291.295 307.457 282.325 307.457 C 270.363 307.457 255.412 313.438 255.412 334.37 C 255.412 367.263 273.354 394.175 285.315 394.175 C 294.286 394.175 294.286 391.185 300.266 391.185 C 306.247 391.185 306.247 394.175 315.218 394.175 C 327.179 394.175 345.12 367.263 345.12 334.37 C 345.12 313.435 330.169 307.457 318.208 307.457 Z" style="fill: url(&quot;#gradient-2&quot;);"/><path d="M 316.713 350.816 L 298.771 334.37 L 298.771 348.074 L 283.82 334.37 L 283.82 367.263 L 298.771 353.555 L 298.771 367.263 L 316.713 350.816 Z" style="" fill="#FFF"/><path d="M 301.821 276.971 C 266.306 276.971 237.506 305.765 237.506 341.286 C 237.506 376.808 266.306 405.598 301.821 405.598 C 337.34 405.598 366.139 376.808 366.139 341.286 C 366.139 305.765 337.34 276.971 301.821 276.971 Z M 244.832 344.857 L 259.063 344.857 C 259.392 353.813 260.929 362.26 263.453 369.873 L 252.362 369.873 C 248.053 362.428 245.395 353.938 244.832 344.857 Z M 305.392 305.555 L 305.392 284.405 C 315.212 285.96 323.842 293.896 329.691 305.555 L 305.392 305.555 Z M 332.735 312.702 C 335.429 320.142 337.086 328.637 337.438 337.713 L 305.392 337.713 L 305.392 312.702 L 332.735 312.702 Z M 298.254 284.405 L 298.254 305.555 L 273.958 305.555 C 279.801 293.896 288.434 285.96 298.254 284.405 Z M 298.254 312.702 L 298.254 337.713 L 266.21 337.713 C 266.557 328.637 268.216 320.142 270.914 312.702 L 298.254 312.702 Z M 259.066 337.713 L 244.832 337.713 C 245.395 328.637 248.053 320.142 252.359 312.702 L 263.45 312.702 C 260.932 320.312 259.395 328.763 259.066 337.713 Z M 266.21 344.857 L 298.254 344.857 L 298.254 369.873 L 270.914 369.873 C 268.216 362.428 266.557 353.938 266.21 344.857 Z M 298.254 377.014 L 298.254 398.164 C 288.434 396.604 279.801 388.676 273.958 377.014 L 298.254 377.014 Z M 305.392 398.164 L 305.392 377.014 L 329.691 377.014 C 323.842 388.676 315.212 396.604 305.392 398.164 Z M 305.392 369.873 L 305.392 344.857 L 337.441 344.857 C 337.086 353.938 335.432 362.428 332.741 369.873 L 305.392 369.873 Z M 344.582 344.857 L 358.81 344.857 C 358.248 353.938 355.592 362.428 351.28 369.873 L 340.187 369.873 C 342.713 362.26 344.244 353.813 344.582 344.857 Z M 344.582 337.713 C 344.244 328.763 342.713 320.312 340.187 312.702 L 351.28 312.702 C 355.592 320.142 358.248 328.637 358.81 337.713 L 344.582 337.713 Z M 346.412 305.555 L 337.468 305.555 C 334.906 299.823 331.727 294.784 328.112 290.553 C 335.214 294.24 341.445 299.363 346.412 305.555 Z M 275.534 290.553 C 271.912 294.784 268.737 299.823 266.171 305.555 L 257.236 305.555 C 262.203 299.363 268.429 294.243 275.534 290.553 Z M 257.236 377.014 L 266.18 377.014 C 268.737 382.747 271.912 387.785 275.534 392.013 C 268.429 388.332 262.203 383.207 257.236 377.014 Z M 328.112 392.013 C 331.73 387.785 334.906 382.747 337.468 377.014 L 346.412 377.014 C 341.445 383.207 335.214 388.332 328.112 392.013 Z" style="fill: url(&quot;#gradient-3&quot;);"/><path d="M 263.898 445.417 C 263.663 445.082 263.592 444.729 263.686 444.356 C 263.779 443.981 264.001 443.677 264.35 443.444 C 264.744 443.177 265.244 443.169 265.848 443.42 C 266.671 443.757 267.318 443.926 267.788 443.928 C 268.779 443.918 269.928 443.473 271.236 442.591 C 272.488 441.75 273.47 440.698 274.182 439.434 C 275.087 437.815 275.124 436.388 274.292 435.152 C 273.608 434.135 272.49 433.72 270.937 433.908 C 269.619 434.055 268.228 434.592 266.763 435.519 C 265.453 436.329 264.179 436.781 262.941 436.877 C 261.354 436.993 260.15 436.441 259.329 435.223 C 258.362 433.784 258.295 431.922 259.129 429.638 C 259.932 427.467 261.166 425.822 262.83 424.704 C 263.614 424.177 264.588 423.716 265.752 423.319 C 267.295 422.787 268.248 422.791 268.611 423.331 C 269.089 424.043 268.965 424.643 268.237 425.131 C 267.914 425.349 267.291 425.642 266.368 426.01 C 265.443 426.381 264.761 426.72 264.323 427.027 C 263.073 427.89 262.211 428.921 261.739 430.119 C 261.253 431.349 261.308 432.409 261.906 433.298 C 262.357 433.968 263.272 434.037 264.652 433.507 C 265.166 433.314 266.092 432.832 267.43 432.063 C 269.371 430.956 271.207 430.566 272.938 430.891 C 274.522 431.186 275.768 432.008 276.675 433.357 C 277.967 435.279 278.111 437.411 277.106 439.754 C 276.231 441.785 274.776 443.486 272.74 444.855 C 271.263 445.848 269.72 446.475 268.111 446.736 C 266.142 447.051 264.737 446.611 263.898 445.417 Z M 292.192 415.042 C 292.023 415.088 291.833 415.099 291.624 415.075 C 290.342 414.959 288.743 415.163 286.827 415.685 C 286.207 415.854 285.494 416.098 284.686 416.415 C 283.881 416.73 282.987 417.121 282.004 417.59 L 283.637 423.684 C 285.317 422.711 286.613 422.1 287.524 421.851 C 288.972 421.458 290.493 421.134 292.087 420.879 C 292.996 420.734 293.569 421.092 293.804 421.956 C 293.919 422.378 293.879 422.765 293.681 423.116 C 293.484 423.469 293.184 423.7 292.781 423.81 C 292.293 423.943 291.548 424.101 290.547 424.282 C 289.549 424.463 288.805 424.621 288.317 424.754 C 287.679 424.928 286.373 425.577 284.399 426.701 L 286.914 436.426 C 287.024 436.83 286.985 437.207 286.798 437.556 C 286.61 437.905 286.315 438.134 285.912 438.244 C 285.508 438.353 285.134 438.306 284.791 438.103 C 284.448 437.898 284.221 437.594 284.109 437.191 C 283.605 435.341 282.883 432.554 281.944 428.83 C 281.005 425.106 280.283 422.319 279.776 420.469 C 279.665 420.055 279.488 419.434 279.247 418.606 C 279.006 417.781 278.829 417.161 278.718 416.746 C 278.604 416.334 278.638 415.951 278.82 415.598 C 279.001 415.247 279.299 415.015 279.714 414.901 C 280.023 414.818 280.323 414.827 280.614 414.928 C 281.722 414.404 282.728 413.967 283.631 413.616 C 284.532 413.263 285.335 412.991 286.041 412.799 C 287.12 412.504 288.396 412.322 289.872 412.252 C 291.877 412.17 292.975 412.476 293.164 413.17 C 293.266 413.547 293.235 413.914 293.071 414.271 C 292.888 414.673 292.595 414.93 292.192 415.042 Z M 306.249 425.272 C 305.978 425.242 305.394 425.115 304.497 424.892 C 304.262 426.345 303.948 428.901 303.555 432.559 C 303.513 432.946 303.353 433.259 303.074 433.498 C 302.793 433.737 302.464 433.837 302.087 433.797 C 301.698 433.755 301.393 433.588 301.172 433.295 C 300.949 433.002 300.858 432.662 300.9 432.275 L 301.357 428.005 C 301.511 426.584 301.814 424.59 302.266 422.024 C 302.761 419.247 303.083 417.255 303.232 416.047 L 303.447 414.046 C 303.551 413.087 303.684 412.397 303.845 411.974 C 304.16 411.145 304.674 410.828 305.388 411.023 C 305.707 410.959 306.155 410.934 306.731 410.948 C 307.307 410.96 308.012 411.011 308.845 411.101 C 310.615 411.292 312.21 412.076 313.629 413.451 C 315.188 414.97 315.867 416.669 315.666 418.547 C 315.407 420.947 314.291 422.76 312.32 423.986 C 310.555 425.088 308.532 425.517 306.249 425.272 Z M 308.214 413.822 C 307.787 413.776 307.407 413.745 307.072 413.729 C 306.735 413.713 306.449 413.712 306.213 413.726 L 305.896 416.394 L 304.97 422.138 L 306.545 422.5 C 308.172 422.675 309.587 422.411 310.789 421.707 C 312.104 420.938 312.844 419.789 313.007 418.26 C 313.125 417.175 312.646 416.179 311.569 415.272 C 310.57 414.439 309.452 413.956 308.214 413.822 Z M 324.478 429.781 C 324.231 429.667 323.718 429.362 322.938 428.866 C 322.254 430.17 321.145 432.493 319.61 435.836 C 319.448 436.189 319.196 436.434 318.853 436.572 C 318.512 436.71 318.17 436.7 317.825 436.542 C 317.47 436.379 317.234 436.123 317.116 435.774 C 316.998 435.425 317.02 435.074 317.182 434.721 L 318.973 430.819 C 319.571 429.519 320.492 427.725 321.736 425.436 C 323.086 422.96 324.024 421.174 324.55 420.078 L 325.39 418.245 C 325.793 417.369 326.138 416.757 326.425 416.409 C 326.987 415.723 327.575 415.585 328.189 415.996 C 328.514 416.038 328.948 416.156 329.49 416.352 C 330.032 416.547 330.683 416.819 331.442 417.168 C 333.061 417.912 334.325 419.162 335.234 420.918 C 336.229 422.854 336.333 424.68 335.545 426.396 C 334.538 428.589 332.905 429.954 330.644 430.49 C 328.623 430.976 326.567 430.74 324.478 429.781 Z M 329.98 419.551 C 329.591 419.372 329.241 419.221 328.928 419.1 C 328.613 418.976 328.342 418.884 328.114 418.822 L 326.966 421.25 L 324.263 426.405 L 325.644 427.245 C 327.129 427.929 328.553 428.128 329.914 427.843 C 331.408 427.532 332.475 426.678 333.117 425.281 C 333.572 424.29 333.433 423.193 332.701 421.988 C 332.02 420.882 331.113 420.07 329.98 419.551 Z M 348.945 440.002 L 338.329 445.665 C 335.734 447.033 333.631 448.232 332.023 449.263 L 329.544 450.94 C 328.92 451.347 328.359 451.362 327.863 450.985 C 327.536 450.74 327.335 450.421 327.259 450.028 C 327.185 449.636 327.268 449.28 327.507 448.961 C 328.095 448.185 330.634 446.572 335.123 444.12 L 337.019 432.942 L 337.139 431.698 C 337.199 431.182 337.32 430.803 337.504 430.562 C 337.743 430.243 338.076 430.055 338.503 429.999 C 338.929 429.944 339.294 430.03 339.597 430.26 C 339.954 430.531 340.127 430.876 340.117 431.294 C 340.051 434.125 339.495 437.805 338.449 442.334 L 343.212 439.619 C 344.885 438.698 346.387 437.955 347.719 437.388 C 348.295 437.141 348.785 437.17 349.19 437.475 C 349.507 437.716 349.703 438.042 349.779 438.453 C 349.853 438.862 349.772 439.221 349.537 439.532 C 349.407 439.704 349.21 439.86 348.945 440.002 Z" style="fill: rgb(59, 136, 195); stroke: rgb(59, 136, 195); stroke-opacity: 0.27; text-wrap-mode: nowrap; stroke-width: 4px;"/></g><rect x="79.378" y="241" width="178.283" height="178.283" style="fill: none;"/></g></svg>